Coordinates
version=1
nRows=36
nColumns=30
inDegrees=yes

Units are S.I. units (second, meters, Newtons, ...)
Angles are in degrees.

endheader
time	floatyaw	floatroll	floatpitch	floatx	floaty	floatz	pro_sup_l	deviation_l	flexion_l	cmc_flexion_l	cmc_abduction_l	mp_flexion_l	ip_flexion_l	2mcp_flexion_l	2mcp_abduction_l	2pm_flexion_l	2md_flexion_l	3mcp_flexion_l	3mcp_abduction_l	3pm_flexion_l	3md_flexion_l	4mcp_flexion_l	4mcp_abduction_l	4pm_flexion_l	4md_flexion_l	5mcp_flexion_l	5mcp_abduction_l	5pm_flexion_l	5md_flexion_l
-1.495000	-160.147433	-5.066637	-73.570646	0.079355	-0.182211	-0.016819	100.672494	4.711111	-1.122848	15.218169	11.411534	-25.521471	-41.875262	29.390188	6.872371	44.005885	30.141292	25.516192	4.238778	45.325092	29.812233	14.502821	-4.178249	52.445073	36.258446	2.045557	-8.660188	61.761205	43.585905
-1.485000	-160.147433	-5.066637	-73.570646	0.079329	-0.182217	-0.016838	100.680801	4.720629	-1.118117	15.152027	11.488196	-25.505781	-41.834934	29.384899	6.874329	44.019699	30.160264	25.483293	4.245950	45.357946	29.832230	14.479673	-4.175949	52.468149	36.266946	2.039858	-8.683796	61.784515	43.597550
-1.475000	-160.147433	-5.066637	-73.570646	0.079304	-0.182231	-0.016861	100.676426	4.718803	-1.120563	15.087733	11.539111	-25.495195	-41.810804	29.393339	6.872016	44.020414	30.164967	25.464988	4.253621	45.369343	29.836554	14.465161	-4.179110	52.490622	36.273060	2.030632	-8.703875	61.800284	43.608138
-1.465000	-160.147433	-5.066637	-73.570646	0.079283	-0.182250	-0.016883	100.664997	4.709320	-1.129711	15.030238	11.564671	-25.492005	-41.810508	29.418103	6.867231	44.008659	30.153125	25.466332	4.261599	45.359653	29.824007	14.464372	-4.186955	52.508275	36.276587	2.024988	-8.718936	61.807627	43.616954
-1.455000	-160.147433	-5.066637	-73.570646	0.079267	-0.182266	-0.016902	100.654614	4.698283	-1.143342	14.984088	11.573421	-25.497179	-41.836279	29.456651	6.862006	43.989969	30.127929	25.486777	4.269497	45.333569	29.797266	14.478787	-4.197144	52.516887	36.277863	2.027368	-8.728646	61.808007	43.623862
-1.445000	-160.147433	-5.066637	-73.570646	0.079256	-0.182275	-0.016915	100.652456	4.691709	-1.157894	14.951152	11.576907	-25.509915	-41.881850	29.501035	6.858099	43.972177	30.097220	25.519429	4.276679	45.298804	29.762520	14.504268	-4.206808	52.514872	36.278140	2.036383	-8.733448	61.805126	43.629610
-1.435000	-160.147433	-5.066637	-73.570646	0.079250	-0.182277	-0.016922	100.661204	4.692937	-1.169288	14.929003	11.584577	-25.527600	-41.932959	29.540106	6.856602	43.962542	30.071182	25.552555	4.282471	45.264566	29.728367	14.531075	-4.213735	52.505349	36.279735	2.045174	-8.734407	61.803773	43.635651
-1.425000	-160.147433	-5.066637	-73.570646	0.079248	-0.182272	-0.016925	100.677364	4.701217	-1.173956	14.911408	11.600817	-25.546357	-41.972300	29.563529	6.857797	43.965611	30.059030	25.573306	4.286570	45.239468	29.703638	14.546839	-4.217112	52.495709	36.285387	2.045081	-8.733290	61.808175	43.643587
-1.415000	-160.147433	-5.066637	-73.570646	0.079247	-0.182266	-0.016925	100.692963	4.712393	-1.169673	14.890950	11.624686	-25.562068	-41.986600	29.565724	6.861288	43.982100	30.065678	25.572313	4.289333	45.229087	29.694566	14.541578	-4.217527	52.494293	36.296860	2.030202	-8.732354	61.820553	43.654474
-1.405000	-160.147433	-5.066637	-73.570646	0.079247	-0.182260	-0.016923	100.700030	4.721472	-1.155856	14.862239	11.651616	-25.571576	-41.971760	29.547732	6.866293	44.008702	30.089744	25.547050	4.291630	45.234242	29.702588	14.512145	-4.216307	52.505945	36.313601	2.000009	-8.733467	61.840508	43.668357
-1.395000	-160.147433	-5.066637	-73.570646	0.079249	-0.182255	-0.016919	100.695276	4.725618	-1.133301	14.823805	11.675826	-25.573693	-41.933378	29.516137	6.871837	44.038884	30.124009	25.502296	4.294277	45.251108	29.724078	14.463569	-4.214624	52.529068	36.332366	1.958753	-8.737029	61.865482	43.684244
-1.385000	-160.147433	-5.066637	-73.570646	0.079253	-0.182248	-0.016912	100.681938	4.725676	-1.103737	14.777866	11.692460	-25.569578	-41.883075	29.479907	6.876784	44.064750	30.158334	25.447615	4.297407	45.273251	29.752176	14.406616	-4.212913	52.555959	36.348205	1.912689	-8.741678	61.892033	43.700520
-1.375000	-160.147433	-5.066637	-73.570646	0.079261	-0.182235	-0.016901	100.667556	4.725253	-1.069662	14.728595	11.698976	-25.562226	-41.833340	29.447067	6.879910	44.079550	30.183644	25.393343	4.300284	45.294471	29.779681	14.353108	-4.210875	52.576276	36.356454	1.867224	-8.745295	61.917253	43.715595
-1.365000	-160.147433	-5.066637	-73.570646	0.079273	-0.182216	-0.016888	100.659197	4.728063	-1.034541	14.680195	11.695818	-25.555255	-41.793791	29.422787	6.880253	44.079875	30.195012	25.347257	4.301686	45.311088	29.801520	14.311592	-4.207968	52.581877	36.354808	1.825582	-8.746671	61.939703	43.728466
-1.355000	-160.147433	-5.066637	-73.570646	0.079287	-0.182194	-0.016875	100.659344	4.735448	-1.002856	14.635791	11.686598	-25.551600	-41.770054	29.409205	6.877629	44.066654	30.192555	25.313253	4.300545	45.322784	29.815816	14.285272	-4.203942	52.570548	36.344471	1.789243	-8.746549	61.959428	43.738923
-1.345000	-160.147433	-5.066637	-73.570646	0.079299	-0.182176	-0.016864	100.665075	4.745722	-0.979329	14.597370	11.677846	-25.552601	-41.764426	29.406208	6.872914	44.044659	30.180221	25.291761	4.296491	45.331958	29.823507	14.272474	-4.199052	52.546850	36.329753	1.759304	-8.747223	61.977008	43.747184
-1.335000	-160.147433	-5.066637	-73.570646	0.079308	-0.182169	-0.016857	100.670720	4.755576	-0.967247	14.566191	11.677995	-25.557556	-41.776532	29.412251	6.867771	44.020851	30.163556	25.280729	4.290101	45.342181	29.827137	14.268657	-4.193893	52.519861	36.316318	1.737574	-8.751005	61.992125	43.753146
-1.325000	-160.147433	-5.066637	-73.570646	0.079311	-0.182174	-0.016855	100.671825	4.762277	-0.966750	14.542878	11.695278	-25.563755	-41.803043	29.424876	6.863908	44.002210	30.147669	25.276438	4.282864	45.356498	29.829572	14.268696	-4.189080	52.499167	36.308977	1.726554	-8.758592	62.002593	43.755788
-1.315000	-160.147433	-5.066637	-73.570646	0.079310	-0.182187	-0.016855	100.667626	4.765038	-0.974323	14.526943	11.734841	-25.567257	-41.837228	29.441152	6.862375	43.993725	30.136081	25.274349	4.276802	45.376216	29.833079	14.268604	-4.185046	52.491069	36.310064	1.728180	-8.768382	62.004666	43.753275
-1.305000	-160.147433	-5.066637	-73.570646	0.079307	-0.182201	-0.016855	100.660676	4.764805	-0.984086	14.516275	11.796163	-25.564576	-41.869916	29.458294	6.863279	43.997045	30.130425	25.270347	4.273751	45.400531	29.838905	14.266388	-4.182053	52.496605	36.318986	1.742134	-8.777068	61.994592	43.743826
-1.295000	-160.147433	-5.066637	-73.570646	0.079303	-0.182209	-0.016853	100.654512	4.763079	-0.990346	14.507410	11.872301	-25.554636	-41.892406	29.474510	6.865986	44.010049	30.130558	25.262171	4.274559	45.427047	29.847236	14.262028	-4.180328	52.512003	36.332952	1.764956	-8.781085	61.970522	43.726803
-1.285000	-160.147433	-5.066637	-73.570646	0.079300	-0.182207	-0.016849	100.651366	4.760940	-0.990018	14.496733	11.951857	-25.539760	-41.900121	29.489655	6.869535	44.027434	30.134699	25.250257	4.278621	45.452850	29.857372	14.256766	-4.180113	52.531076	36.348401	1.790779	-8.778090	61.933811	43.703420
-1.275000	-160.147433	-5.066637	-73.570646	0.079300	-0.182196	-0.016844	100.651328	4.758880	-0.983669	14.481965	12.023076	-25.524953	-41.894774	29.505161	6.873026	44.042331	30.139779	25.237328	4.284114	45.475521	29.867952	14.252064	-4.181569	52.548261	36.362463	1.813346	-8.767874	61.889197	43.676733
-1.265000	-160.147433	-5.066637	-73.570646	0.079299	-0.182182	-0.016842	100.652884	4.757052	-0.974727	14.463054	12.078044	-25.515869	-41.883551	29.523085	6.875856	44.048745	30.142336	25.226904	4.288829	45.493544	29.877202	14.248712	-4.184630	52.560928	36.373881	1.828146	-8.752464	61.843907	43.650991
-1.255000	-160.147433	-5.066637	-73.570646	0.079299	-0.182170	-0.016842	100.653914	4.755328	-0.967418	14.442055	12.114867	-25.516650	-41.875788	29.544827	6.877834	44.043964	30.139837	25.221661	4.291166	45.505985	29.883171	14.246528	-4.189001	52.570112	36.383089	1.833636	-8.735505	61.805974	43.630602
-1.245000	-160.147433	-5.066637	-73.570646	0.079298	-0.182165	-0.016846	100.652541	4.753136	-0.964598	14.422253	12.137196	-25.528646	-41.879090	29.570319	6.879193	44.029722	30.131709	25.222597	4.290755	45.511982	29.884036	14.244819	-4.194364	52.579538	36.391563	1.831281	-8.721120	61.782117	43.618997
-1.235000	-160.147433	-5.066637	-73.570646	0.079296	-0.182166	-0.016852	100.647858	4.749636	-0.966606	14.407036	12.152070	-25.550293	-41.896752	29.597982	6.880548	44.011546	30.119539	25.229162	4.288443	45.510899	29.878661	14.243259	-4.200589	52.593496	36.400831	1.824801	-8.712593	61.775724	43.617617
-1.225000	-160.147433	-5.066637	-73.570646	0.079294	-0.182172	-0.016859	100.640521	4.744488	-0.971586	14.398872	12.167337	-25.577846	-41.927179	29.625159	6.882762	43.996727	30.106514	25.239756	4.285748	45.503403	29.867441	14.242499	-4.207692	52.614452	36.411589	1.819005	-8.711297	61.785614	43.625334
-1.215000	-160.147433	-5.066637	-73.570646	0.079291	-0.182176	-0.016864	100.632728	4.738687	-0.976840	14.398574	12.189113	-25.606615	-41.965094	29.648732	6.886562	43.991737	30.096390	25.252037	4.284137	45.492440	29.852842	14.243823	-4.215484	52.641450	36.423254	1.818182	-8.716342	61.806166	43.638632
-1.205000	-160.147433	-5.066637	-73.570646	0.079289	-0.182177	-0.016865	100.627084	4.734508	-0.980215	14.404900	12.219366	-25.632375	-42.003709	29.665848	6.891990	43.999763	30.092185	25.263046	4.284510	45.482604	29.838829	14.247842	-4.223212	52.670130	36.434192	1.824132	-8.725069	61.828959	43.652717
-1.195000	-160.147433	-5.066637	-73.570646	0.079288	-0.182174	-0.016861	100.624727	4.734292	-0.980761	14.414569	12.254415	-25.652482	-42.036740	29.674701	6.898118	44.019158	30.094951	25.269601	4.287115	45.477689	29.829136	14.253129	-4.229613	52.694665	36.442586	1.834691	-8.734186	61.845464	43.663258
-1.185000	-160.147433	-5.066637	-73.570646	0.079288	-0.182171	-0.016851	100.623900	4.738783	-0.978522	14.422802	12.285844	-25.666345	-42.059504	29.675131	6.903428	44.043850	30.103341	25.269156	4.291811	45.478135	29.825430	14.256023	-4.233575	52.710884	36.447623	1.843980	-8.741011	61.849949	43.668048
-1.175000	-160.147433	-5.066637	-73.570646	0.079289	-0.182172	-0.016839	100.620128	4.746210	-0.973935	14.424561	12.304408	-25.675258	-42.069360	29.668660	6.906739	44.066012	30.114446	25.260832	4.298327	45.480493	29.826671	14.252059	-4.234998	52.718929	36.450270	1.844764	-8.744289	61.841566	43.667822
-1.165000	-160.147433	-5.066637	-73.570646	0.079292	-0.182179	-0.016826	100.608222	4.752869	-0.967410	14.416330	12.305478	-25.681939	-42.066254	29.657874	6.907970	44.079903	30.125536	25.245980	4.306285	45.479586	29.830104	14.238278	-4.235205	52.723689	36.453078	1.831810	-8.744294	61.824691	43.665802
-1.155000	-160.147433	-5.066637	-73.570646	0.079296	-0.182192	-0.016817	100.585058	4.754914	-0.959278	14.397708	12.293004	-25.689825	-42.053413	29.645452	6.908128	44.084777	30.135610	25.227824	4.314979	45.471911	29.833126	14.214970	-4.236403	52.732433	36.458926	1.804470	-8.742322	61.807106	43.666113
-1.145000	-160.147433	-5.066637	-73.570646	0.079299	-0.182207	-0.016813	100.551547	4.750324	-0.949842	14.371899	12.279208	-25.701909	-42.037193	29.633473	6.908559	44.085020	30.145693	25.210259	4.323242	45.457918	29.834745	14.185767	-4.240444	52.750859	36.469370	1.767168	-8.739886	61.796612	43.671793
